<svg xmlns="http://www.w3.org/2000/svg" viewBox="0 0 780 520" role="img" aria-label="Diagram of a routing layer selecting a small AI agent skill set">
  <defs>
    <linearGradient id="bg" x1="0" x2="1" y1="0" y2="1">
      <stop offset="0%" stop-color="#eff6ff"/>
      <stop offset="100%" stop-color="#f8fafc"/>
    </linearGradient>
    <filter id="shadow" x="-20%" y="-20%" width="140%" height="140%">
      <feDropShadow dx="0" dy="18" stdDeviation="22" flood-color="#0f172a" flood-opacity="0.16"/>
    </filter>
  </defs>
  <rect width="780" height="520" rx="34" fill="url(#bg)"/>
  <g filter="url(#shadow)">
    <rect x="70" y="70" width="640" height="380" rx="28" fill="#ffffff"/>
  </g>
  <text x="110" y="125" fill="#0f172a" font-family="Inter, Arial, sans-serif" font-size="28" font-weight="800">Route before you work</text>
  <text x="110" y="156" fill="#475569" font-family="Inter, Arial, sans-serif" font-size="16">A small decision layer keeps multi-skill agents focused.</text>
  <g transform="translate(110 205)">
    <rect width="150" height="72" rx="16" fill="#dbeafe"/>
    <text x="22" y="32" fill="#1e3a8a" font-family="Inter, Arial, sans-serif" font-size="16" font-weight="700">Task nature</text>
    <text x="22" y="54" fill="#1d4ed8" font-family="Inter, Arial, sans-serif" font-size="13">API, UI, CI, docs</text>
  </g>
  <path d="M275 241h70" stroke="#94a3b8" stroke-width="4" stroke-linecap="round"/>
  <path d="M338 230l16 11-16 11" fill="none" stroke="#94a3b8" stroke-width="4" stroke-linecap="round" stroke-linejoin="round"/>
  <g transform="translate(365 205)">
    <rect width="150" height="72" rx="16" fill="#dcfce7"/>
    <text x="22" y="32" fill="#14532d" font-family="Inter, Arial, sans-serif" font-size="16" font-weight="700">Work stage</text>
    <text x="22" y="54" fill="#15803d" font-family="Inter, Arial, sans-serif" font-size="13">Plan, build, verify</text>
  </g>
  <path d="M530 241h70" stroke="#94a3b8" stroke-width="4" stroke-linecap="round"/>
  <path d="M593 230l16 11-16 11" fill="none" stroke="#94a3b8" stroke-width="4" stroke-linecap="round" stroke-linejoin="round"/>
  <g transform="translate(620 205)">
    <rect width="70" height="72" rx="16" fill="#fef3c7"/>
    <text x="16" y="32" fill="#78350f" font-family="Inter, Arial, sans-serif" font-size="15" font-weight="700">Skills</text>
    <text x="16" y="54" fill="#92400e" font-family="Inter, Arial, sans-serif" font-size="13">1 to 4</text>
  </g>
  <g transform="translate(110 320)">
    <rect width="560" height="64" rx="18" fill="#0f172a"/>
    <text x="28" y="27" fill="#e2e8f0" font-family="Inter, Arial, sans-serif" font-size="15" font-weight="700">Route: Frontend / Debugging &gt; Browser reproduction &gt; Single-page app</text>
    <text x="28" y="49" fill="#93c5fd" font-family="Inter, Arial, sans-serif" font-size="13">Use SKILL: vue-expert, systematic-debugging, playwright</text>
  </g>
</svg>

